<svg width="1024" height="1024" viewBox="0 0 1024 1024" xmlns="http://www.w3.org/2000/svg">
  <!--
    Monochrome ZT monogram — Safari pinned-tab "mask-icon".
    Apple HIG: tek-renk olmalı (rel="mask-icon" color="..." kullanıcı rengi uygular).
    Gradient ve filter referansları kaldırıldı.
  -->
  <path d="M243 405V382C243 316 295 265 363 265H555C617 265 657 287 691 333C722 287 762 265 824 265H801C733 265 713 303 692 345L679 371L664 346C639 304 606 293 553 293H363C311 293 272 331 272 382V405H243Z" fill="black"/>
  <path d="M768 293H824V365H741C716 365 698 374 683 398L552 606L684 686C700 696 716 702 741 702H795V777H742C677 777 637 754 602 707C568 754 527 777 462 777H243V727L494 365H304V340C304 314 325 293 351 293H596C632 293 662 312 679 343L689 362L699 342C716 311 734 293 768 293ZM351 365H568L303 748H462C511 748 543 735 570 704L591 680L522 638L660 421C684 383 709 340 766 340H795V293H768Z" fill="black"/>
  <path d="M633 341C655 362 668 392 668 432V650C668 691 680 727 731 727H746C768 727 785 710 785 688V660H812V688C812 725 783 755 746 755H731C666 755 641 713 641 650V432C641 386 619 365 568 365H535L552 340H596C610 340 622 340 633 341Z" fill="black"/>
  <path d="M243 727H462C512 727 540 716 568 682L592 704C559 744 521 755 462 755H243V727Z" fill="black"/>
</svg>
